<svg width="103" height="100" viewBox="0 0 103 100" fill="none" xmlns="http://www.w3.org/2000/svg">
<path d="M41.4595 99.7608C64.3569 99.7608 82.919 81.1987 82.919 58.3013C82.919 35.4038 64.3569 16.8418 41.4595 16.8418C18.562 16.8418 0 35.4038 0 58.3013C0 81.1987 18.562 99.7608 41.4595 99.7608Z" fill="#F2FAF3"/>
<path d="M28.7889 13.2559H93.8874C95.2686 13.2559 96.5933 13.8045 97.5699 14.7812C98.5466 15.7579 99.0953 17.0825 99.0953 18.4637V56.2209H23.5811V18.4637C23.5811 17.0825 24.1297 15.7579 25.1064 14.7812C26.0831 13.8045 27.4077 13.2559 28.7889 13.2559Z" fill="#D9EAFC"/>
<path d="M84.7733 15.8591V56.2202H37.9023V5.44336H74.3575V15.8591H84.7733Z" fill="#FFFBF1"/>
<path d="M62.6396 34.0879H78.2633V36.6918H62.6396V34.0879Z" fill="#57A4FF"/>
<path d="M57.4316 39.2949H78.2632V41.8989H57.4316V39.2949Z" fill="#57A4FF"/>
<path d="M62.6396 44.5039H78.2633V47.1078H62.6396V44.5039Z" fill="#57A4FF"/>
<path d="M57.4316 49.7109H78.2632V52.3149H57.4316V49.7109Z" fill="#57A4FF"/>
<path d="M57.4316 34.0879H60.0356V36.6918H57.4316V34.0879Z" fill="#57A4FF"/>
<path d="M57.4316 44.5039H60.0356V47.1078H57.4316V44.5039Z" fill="#57A4FF"/>
<path d="M49.62 11.9531H44.4121V26.2748H47.016V20.8065L51.1407 26.9935L53.3072 25.5483L49.4481 19.7649H49.62C50.6559 19.7649 51.6494 19.3534 52.3819 18.6209C53.1144 17.8884 53.5259 16.8949 53.5259 15.859C53.5259 14.8231 53.1144 13.8296 52.3819 13.0971C51.6494 12.3646 50.6559 11.9531 49.62 11.9531ZM49.62 17.161H47.016V14.5571H49.62C49.9653 14.5571 50.2965 14.6942 50.5406 14.9384C50.7848 15.1826 50.922 15.5137 50.922 15.859C50.922 16.2043 50.7848 16.5355 50.5406 16.7797C50.2965 17.0238 49.9653 17.161 49.62 17.161Z" fill="#ED1C24"/>
<path d="M62.8433 26.9758L65.041 25.5775L60.9294 19.1159L65.041 12.6542L62.8433 11.2559L59.3852 16.6903L55.9272 11.2559L53.7295 12.6542L57.8411 19.1159L53.7295 25.5775L55.9272 26.9758L59.3852 21.5414L62.8433 26.9758Z" fill="#ED1C24"/>
<path d="M99.0953 56.2207V61.4286C99.0953 62.8098 98.5466 64.1344 97.5699 65.1111C96.5933 66.0878 95.2686 66.6365 93.8874 66.6365H28.7889C27.4077 66.6365 26.0831 66.0878 25.1064 65.1111C24.1297 64.1344 23.5811 62.8098 23.5811 61.4286V56.2207H99.0953Z" fill="#939598"/>
<path d="M61.3383 64.0321C62.7764 64.0321 63.9423 62.8663 63.9423 61.4282C63.9423 59.99 62.7764 58.8242 61.3383 58.8242C59.9002 58.8242 58.7344 59.99 58.7344 61.4282C58.7344 62.8663 59.9002 64.0321 61.3383 64.0321Z" fill="#F1F2F2"/>
<path d="M52.2236 66.6367H70.4512V74.4485H52.2236V66.6367Z" fill="#6D6E71"/>
<path d="M44.4125 74.4492C43.7219 74.4492 43.0596 74.7236 42.5713 75.2119C42.0829 75.7002 41.8086 76.3626 41.8086 77.0532V79.6571H80.8677V77.0532C80.8677 76.3626 80.5933 75.7002 80.105 75.2119C79.6167 74.7236 78.9544 74.4492 78.2637 74.4492H44.4125Z" fill="#58595B"/>
<path d="M47.0166 35.3887H52.2245V40.5966H47.0166V35.3887Z" fill="#2488FF"/>
<path d="M84.7732 15.8591L74.3574 5.44336V15.8591H84.7732Z" fill="#006DF0"/>
<path d="M37.9023 31.4844V56.2218H67.8476C51.2957 56.2218 37.9023 45.1551 37.9023 31.4844Z" fill="#D7D3C7"/>
<path d="M47.0166 45.8047H52.2245V51.0126H47.0166V45.8047Z" fill="#2488FF"/>
</svg>
