<svg width="104" height="102" viewBox="0 0 104 102" fill="none" xmlns="http://www.w3.org/2000/svg">
<g clip-path="url(#clip0_13220_109507)">
<path d="M44.3537 101.758C68.8496 101.758 88.7074 81.9004 88.7074 57.4045C88.7074 32.9086 68.8496 13.0508 44.3537 13.0508C19.8578 13.0508 0 32.9086 0 57.4045C0 81.9004 19.8578 101.758 44.3537 101.758Z" fill="#F2FAF3"/>
<path d="M103.001 33.3749C102.852 32.6912 102.177 32.2579 101.494 32.4065C100.81 32.5553 100.376 33.2303 100.525 33.9141C105.903 58.6097 87.0349 81.8949 61.9011 81.8949C40.1046 81.8949 22.3718 64.1621 22.3718 42.3657C22.3718 20.5692 40.1046 2.83625 61.9011 2.83625C74.5329 2.83625 86.192 8.75211 93.6423 18.7997L90.6536 18.2721C89.9649 18.1492 89.3072 18.6105 89.1858 19.2994C89.064 19.9884 89.5243 20.6458 90.2132 20.7672C96.2407 21.7045 96.5129 22.1711 97.2721 21.6227C98.0324 21.0734 97.6758 20.6624 98.701 14.4858C98.8018 13.7934 98.3225 13.1503 97.6301 13.0493C96.9371 12.9503 96.2945 13.428 96.1936 14.1203L95.7215 17.3598C92.1899 12.5946 87.6673 8.58949 82.4945 5.67966C54.4861 -10.0753 19.8379 10.2809 19.8379 42.3657C19.8379 65.6126 38.6505 84.4288 61.9011 84.4288C73.1367 84.4288 83.6996 80.0536 91.6441 72.1087C102.152 61.6012 105.958 46.9531 103.001 33.3749Z" fill="#1B87B3"/>
<path d="M90.6559 58.6745C85.5086 67.751 76.7125 73.4608 67.1579 75.0048C59.992 76.1636 52.3969 74.9812 45.5925 71.1212C29.7099 62.114 24.1387 41.9389 33.1459 26.0578C40.1599 13.6905 53.9461 7.57534 67.202 9.72746C70.969 10.339 74.6939 11.6178 78.2094 13.6111C94.0919 22.6185 99.6633 42.7936 90.6559 58.6745Z" fill="#3993B7"/>
<path d="M90.6567 58.6736C85.5094 67.7501 76.7133 73.4599 67.1586 75.0039C63.3916 74.3924 59.6667 73.1136 56.1512 71.1203C40.2685 62.1131 34.6973 41.938 43.7045 26.0569C48.8518 16.9804 57.6479 11.2706 67.2025 9.72656C70.9696 10.3381 74.6945 11.6169 78.2099 13.6102C94.0927 22.6176 99.6641 42.7927 90.6567 58.6736Z" fill="#3E9DC3"/>
<path d="M73.0557 20.1211V29.7027C73.0557 32.7755 71.5658 35.6574 69.0572 37.4329L64.6043 40.5868L62.094 42.3656L61.9015 42.5024L61.7089 42.3656L54.7456 37.4329C52.237 35.6575 50.7471 32.7756 50.7471 29.7027V20.1211H73.0557Z" fill="#D2D2D7"/>
<path d="M73.0557 55.0283V64.6099H50.7471V55.0283C50.7471 51.9555 52.237 49.0736 54.7456 47.298L61.7089 42.3653L61.9015 42.2285L62.094 42.3653L64.6043 44.1442L69.0572 47.298C71.5658 49.0734 73.0557 51.9553 73.0557 55.0283Z" fill="#D2D2D7"/>
<path d="M73.0552 20.1211V29.7027C73.0552 32.7755 71.5653 35.6574 69.0567 37.4329L64.6038 40.5868L60.1509 37.4329C57.6423 35.6575 56.1523 32.7756 56.1523 29.7027V20.1211C56.1522 20.1211 73.0552 20.1211 73.0552 20.1211Z" fill="#EBEBF0"/>
<path d="M73.0554 55.0286V64.6102H56.1523V55.0286C56.1523 51.9558 57.6423 49.0739 60.1509 47.2984L64.6038 44.1445L69.0567 47.2984C71.5655 49.0738 73.0554 51.9557 73.0554 55.0286Z" fill="#EBEBF0"/>
<path d="M74.3537 23.2114H49.45C48.3351 23.2114 47.4229 22.2991 47.4229 21.1842V19.0584C47.4229 17.9435 48.3351 17.0312 49.45 17.0312H74.3537C75.4685 17.0312 76.3808 17.9435 76.3808 19.0584V21.1842C76.3808 22.2991 75.4685 23.2114 74.3537 23.2114Z" fill="#F44545"/>
<path d="M49.45 61.5215H74.3537C75.4685 61.5215 76.3808 62.4338 76.3808 63.5486V65.6744C76.3808 66.7893 75.4685 67.7016 74.3537 67.7016H49.45C48.3351 67.7016 47.4229 66.7893 47.4229 65.6744V63.5486C47.4229 62.4338 48.335 61.5215 49.45 61.5215Z" fill="#F44545"/>
</g>
<defs>
<clipPath id="clip0_13220_109507">
<rect width="104" height="102" fill="white"/>
</clipPath>
</defs>
</svg>
