<svg width="105" height="97" viewBox="0 0 105 97" fill="none" xmlns="http://www.w3.org/2000/svg">
<path d="M40.9439 96.9991C63.5566 96.9991 81.8878 78.6679 81.8878 56.0552C81.8878 33.4425 63.5566 15.1113 40.9439 15.1113C18.3312 15.1113 0 33.4425 0 56.0552C0 78.6679 18.3312 96.9991 40.9439 96.9991Z" fill="#F2FAF3"/>
<path d="M93.173 84.6573L91.0576 85.7971C88.7482 87.0301 86.1114 87.511 83.5154 87.1726C80.9194 86.8342 78.4939 85.6934 76.5778 83.9096L66.8213 74.8552L85.6687 54.5488L104.58 72.1197L93.173 84.6573Z" fill="#FB9C88"/>
<path d="M89.407 2.27344H51.2654C49.3568 2.27344 47.8096 3.82066 47.8096 5.72925V74.5629C47.8096 76.4715 49.3568 78.0187 51.2654 78.0187H89.407C91.3156 78.0187 92.8628 76.4715 92.8628 74.5629V5.72925C92.8628 3.82066 91.3156 2.27344 89.407 2.27344Z" fill="#52527B"/>
<path d="M51.5572 7.06053C51.5584 6.92402 51.5864 6.78908 51.6398 6.66342C51.6931 6.53776 51.7707 6.42384 51.8681 6.32816C51.9654 6.23248 52.0807 6.15692 52.2073 6.10579C52.3339 6.05466 52.4693 6.02896 52.6058 6.03017H79.3222C79.8204 6.03017 80.2982 5.83227 80.6504 5.48001C81.0027 5.12775 81.2006 4.64998 81.2006 4.15181C81.2006 3.65364 81.0027 3.17587 80.6504 2.82361C80.2982 2.47135 79.8204 2.27345 79.3222 2.27345H51.2563C50.8041 2.27225 50.3561 2.36028 49.938 2.5325C49.5198 2.70472 49.1398 2.95774 48.8196 3.27706C48.4995 3.59639 48.2454 3.97575 48.0721 4.39341C47.8988 4.81108 47.8096 5.25883 47.8096 5.71103V17.9204C47.8109 18.3971 47.9935 18.8555 48.3203 19.2026C48.6471 19.5497 49.0936 19.7595 49.5694 19.7896C49.8246 19.8058 50.0805 19.7695 50.3212 19.6828C50.5618 19.5962 50.7821 19.4611 50.9685 19.2859C51.1548 19.1106 51.3032 18.899 51.4044 18.6642C51.5057 18.4293 51.5577 18.1761 51.5572 17.9204V7.06053Z" fill="#5275B7"/>
<path d="M51.2563 2.27345C50.8041 2.27225 50.3561 2.36028 49.938 2.5325C49.5198 2.70472 49.1398 2.95774 48.8196 3.27706C48.4995 3.59639 48.2454 3.97575 48.0721 4.39341C47.8988 4.81108 47.8096 5.25883 47.8096 5.71103V9.70482C47.8427 10.1792 48.0545 10.6234 48.4022 10.9477C48.75 11.272 49.2078 11.4524 49.6834 11.4524C50.1589 11.4524 50.6167 11.272 50.9645 10.9477C51.3123 10.6234 51.5241 10.1792 51.5572 9.70482V7.06053C51.5584 6.92402 51.5864 6.78908 51.6398 6.66342C51.6931 6.53776 51.7707 6.42384 51.8681 6.32816C51.9654 6.23248 52.0807 6.15692 52.2073 6.10579C52.3339 6.05466 52.4693 6.02896 52.6058 6.03017H63.958C64.4562 6.03017 64.9339 5.83227 65.2862 5.48001C65.6384 5.12775 65.8363 4.64998 65.8363 4.15181C65.8363 3.65364 65.6384 3.17587 65.2862 2.82361C64.9339 2.47135 64.4562 2.27345 63.958 2.27345H51.2563Z" fill="#5CA2DA"/>
<path d="M89.079 73.2321C89.0766 73.5062 88.966 73.7683 88.7713 73.9613C88.5766 74.1542 88.3136 74.2625 88.0395 74.2625H65.3715C64.8734 74.2625 64.3956 74.4604 64.0433 74.8127C63.6911 75.1649 63.4932 75.6427 63.4932 76.1409C63.4932 76.639 63.6911 77.1168 64.0433 77.4691C64.3956 77.8213 64.8734 78.0192 65.3715 78.0192H89.4255C90.3372 78.0192 91.2115 77.657 91.8562 77.0124C92.5009 76.3677 92.863 75.4933 92.863 74.5816V36.9233C92.863 36.4251 92.6651 35.9473 92.3129 35.5951C91.9606 35.2428 91.4828 35.0449 90.9847 35.0449C90.4865 35.0449 90.0087 35.2428 89.6565 35.5951C89.3042 35.9473 89.1063 36.4251 89.1063 36.9233L89.079 73.2321Z" fill="#393462"/>
<path d="M89.1065 73.2308V7.06878C89.1065 6.49469 88.6412 6.0293 88.0671 6.0293H52.5971C52.023 6.0293 51.5576 6.49469 51.5576 7.06878V73.2308C51.5576 73.8049 52.023 74.2703 52.5971 74.2703H88.0671C88.6412 74.2703 89.1065 73.8049 89.1065 73.2308Z" fill="#A8D1FF"/>
<path d="M86.3896 12.3221V39.3669L82.5508 40.999C81.5109 41.4437 80.5943 42.1339 79.8796 43.0106C79.165 43.8872 78.6736 44.9241 78.4476 46.0323L77.1072 52.6613C76.8378 53.9961 76.115 55.1966 75.0613 56.0591C74.0076 56.9217 72.688 57.3932 71.3263 57.3936H67.8978C66.5722 57.3863 65.2876 56.9335 64.2505 56.108L56.6368 50.017C55.9128 49.441 55.3284 48.7087 54.9273 47.875C54.5263 47.0413 54.3189 46.1277 54.3207 45.2025V12.4863C54.2874 11.7151 54.5039 10.9538 54.9382 10.3156C55.3724 9.67748 56.0011 9.19658 56.7306 8.94451C57.4602 8.69244 58.2516 8.68268 58.9872 8.91668C59.7227 9.15068 60.3631 9.61592 60.8129 10.2432C61.3545 11.0849 62.1039 11.7729 62.9887 12.2408C63.8734 12.7088 64.8639 12.9409 65.8644 12.9148H74.8824C75.884 12.9398 76.8753 12.7073 77.7614 12.2395C78.6475 11.7717 79.3986 11.0844 79.943 10.2432C80.3881 9.64208 81.0105 9.19574 81.7227 8.96705C82.4348 8.73836 83.2008 8.73883 83.9126 8.9684C84.6245 9.19796 85.2464 9.64506 85.6907 10.2467C86.1351 10.8484 86.3795 11.5743 86.3896 12.3221Z" fill="white"/>
<path d="M89.1883 64.7614V73.2322C89.1883 73.5039 89.081 73.7646 88.8897 73.9576C88.6985 74.1506 88.4387 74.2602 88.167 74.2626H52.6059C52.4698 74.2638 52.3348 74.238 52.2088 74.1868C52.0827 74.1355 51.9681 74.0598 51.8714 73.964C51.7748 73.8682 51.6981 73.7542 51.6457 73.6286C51.5934 73.503 51.5664 73.3683 51.5664 73.2322V67.506L53.7639 55.7525C54.2657 53.2903 55.4187 51.0078 57.1026 49.1426C58.7865 47.2775 60.9398 45.898 63.3381 45.148C64.579 44.7663 65.8694 44.5696 67.1677 44.5645H74.7359C77.0761 44.7052 79.3447 45.4255 81.3375 46.6607C83.3302 47.8958 84.9846 49.607 86.1519 51.6402C87.5196 54.1386 87.5379 55.5246 89.1883 64.7614Z" fill="#E6E7E8"/>
<path d="M80.0342 46.4062L84.4656 66.7674H89.1068V50.8924L80.0342 46.4062Z" fill="#BCBEC0"/>
<path d="M61.0309 69.7218C60.4203 69.7225 59.8169 69.5898 59.2629 69.3331C58.7089 69.0763 58.2176 68.7017 57.8234 68.2354C57.4291 67.7691 57.1415 67.2224 56.9805 66.6334C56.8195 66.0444 56.789 65.4273 56.8912 64.8253L58.2316 56.6189C58.4299 55.4164 58.8833 54.2703 59.5611 53.2575C60.2389 52.2447 61.1256 51.3886 62.1616 50.7468L62.7178 50.4003C64.0607 49.5608 65.6111 49.1124 67.1948 49.1055H74.2068C75.7954 49.1092 77.3517 49.5543 78.7021 50.3911C80.1666 51.207 81.3732 52.4168 82.1852 53.8834C82.6315 54.7124 82.9395 55.6087 83.0971 56.5368L84.5833 64.8253C84.6914 65.4292 84.6656 66.0495 84.5078 66.6424C84.3501 67.2353 84.0642 67.7863 83.6704 68.2567C83.2765 68.7271 82.7842 69.1053 82.2283 69.3648C81.6724 69.6242 81.0663 69.7585 80.4528 69.7583L61.0309 69.7218Z" fill="white"/>
<path d="M85.5228 73.5864C85.5592 73.8242 85.5003 74.0667 85.3587 74.2612H83.8907C83.7083 74.0241 83.7904 74.2612 82.8785 68.5896C82.0488 63.5017 82.0761 63.6658 81.757 61.6051C81.7195 61.3632 81.7796 61.1164 81.9241 60.9189C82.0686 60.7214 82.2856 60.5894 82.5275 60.5519C82.7693 60.5144 83.0161 60.5745 83.2136 60.719C83.4111 60.8635 83.5432 61.0806 83.5806 61.3224C84.0365 64.3405 83.4712 60.9394 85.5228 73.5864Z" fill="#3E3962"/>
<path d="M66.8213 44.9004L70.6783 58.7966L74.5353 44.9004H66.8213Z" fill="#A8D1FF"/>
<path d="M74.4901 44.9007C74.0549 45.5178 73.4777 46.0214 72.8073 46.3689C72.1369 46.7165 71.3928 46.8979 70.6376 46.8979C69.8825 46.8979 69.1383 46.7165 68.4679 46.3689C67.7975 46.0214 67.2204 45.5178 66.7852 44.9007V39.293H74.4901V44.9007Z" fill="#FB9C88"/>
<path d="M58.8887 13.1797H69.3564C70.8872 13.1797 72.3553 13.7878 73.4377 14.8702C74.5202 15.9527 75.1283 17.4207 75.1283 18.9515V28.2066H61.5238C60.8328 28.2067 60.1693 27.9353 59.6764 27.4509C59.1835 26.9665 58.9006 26.3079 58.8887 25.617V13.1797Z" fill="#52527B"/>
<path d="M80.1072 28.2066H77.0617C76.8087 28.2078 76.5579 28.1588 76.324 28.0626C76.09 27.9663 75.8774 27.8246 75.6985 27.6457C75.5196 27.4668 75.378 27.2543 75.2817 27.0203C75.1854 26.7863 75.1365 26.5356 75.1377 26.2826V16.6993C75.1377 15.7659 75.5085 14.8706 76.1686 14.2106C76.8287 13.5505 77.7239 13.1797 78.6574 13.1797C79.6932 13.1821 80.6859 13.5953 81.4175 14.3286C82.1491 15.062 82.56 16.0555 82.56 17.0914V25.7537C82.5612 26.0762 82.4986 26.3957 82.3757 26.6938C82.2529 26.992 82.0722 27.2628 81.8442 27.4908C81.6162 27.7188 81.3454 27.8995 81.0472 28.0223C80.7491 28.1451 80.4296 28.2078 80.1072 28.2066Z" fill="#52527B"/>
<path d="M82.0399 28.2051H59.3172C58.1691 28.2051 57.2383 29.1359 57.2383 30.284V30.2932C57.2383 31.4413 58.1691 32.3721 59.3172 32.3721H82.0399C83.1881 32.3721 84.1189 31.4413 84.1189 30.2932V30.284C84.1189 29.1359 83.1881 28.2051 82.0399 28.2051Z" fill="#FB9C88"/>
<path d="M80.3532 27.4392V31.9254C80.2759 34.441 79.2223 36.8277 77.4156 38.5798C75.6089 40.332 73.1909 41.3118 70.6741 41.3118C68.1573 41.3118 65.7394 40.332 63.9327 38.5798C62.1259 36.8277 61.0723 34.441 60.9951 31.9254V27.4392C61.0723 24.9236 62.1259 22.5369 63.9327 20.7847C65.7394 19.0326 68.1573 18.0527 70.6741 18.0527C73.1909 18.0527 75.6089 19.0326 77.4156 20.7847C79.2223 22.5369 80.2759 24.9236 80.3532 27.4392Z" fill="#FB9C88"/>
<path d="M80.3532 30.8318V31.926C80.2759 34.4416 79.2223 36.8283 77.4156 38.5804C75.6089 40.3326 73.1909 41.3124 70.6741 41.3124C68.1573 41.3124 65.7394 40.3326 63.9327 38.5804C62.1259 36.8283 61.0723 34.4416 60.9951 31.926V30.8318C61.0723 28.3162 62.1259 25.9294 63.9327 24.1773C65.7394 22.4252 68.1573 21.4453 70.6741 21.4453C73.1909 21.4453 75.6089 22.4252 77.4156 24.1773C79.2223 25.9294 80.2759 28.3162 80.3532 30.8318Z" fill="#FBC4AB"/>
<path d="M73.2136 36.1289C72.5097 36.7421 71.6077 37.0799 70.6742 37.0799C69.7407 37.0799 68.8387 36.7421 68.1348 36.1289" fill="white"/>
<path d="M67.5326 36.813C67.3759 36.6484 67.2863 36.4311 67.2815 36.2039C67.2766 35.9766 67.3568 35.7558 67.5063 35.5846C67.6558 35.4134 67.8639 35.3042 68.0897 35.2784C68.3155 35.2527 68.5429 35.3122 68.7271 35.4453C69.274 35.8999 69.9627 36.1487 70.6738 36.1487C71.385 36.1487 72.0737 35.8999 72.6206 35.4453C72.708 35.3534 72.8137 35.2808 72.9307 35.2321C73.0478 35.1834 73.1738 35.1596 73.3006 35.1623C73.4274 35.165 73.5522 35.1942 73.6671 35.2479C73.782 35.3016 73.8844 35.3786 73.9678 35.4741C74.0513 35.5697 74.1138 35.6815 74.1516 35.8026C74.1893 35.9237 74.2014 36.0513 74.187 36.1773C74.1726 36.3033 74.1321 36.4249 74.0681 36.5344C74.004 36.6438 73.9179 36.7387 73.8151 36.813C72.9439 37.5706 71.8283 37.9878 70.6738 37.9878C69.5194 37.9878 68.4038 37.5706 67.5326 36.813Z" fill="#302D3D"/>
<path d="M74.4899 30.8401C74.2481 30.8401 74.0162 30.744 73.8452 30.573C73.6742 30.402 73.5781 30.1701 73.5781 29.9283V29.4997C73.5781 29.2579 73.6742 29.026 73.8452 28.855C74.0162 28.684 74.2481 28.5879 74.4899 28.5879C74.7318 28.5879 74.9637 28.684 75.1347 28.855C75.3057 29.026 75.4018 29.2579 75.4018 29.4997V29.9283C75.4018 30.1701 75.3057 30.402 75.1347 30.573C74.9637 30.744 74.7318 30.8401 74.4899 30.8401Z" fill="#302D3D"/>
<path d="M75.4836 28.0971H73.5778C73.336 28.0971 73.1041 28.001 72.9331 27.83C72.7621 27.659 72.666 27.4271 72.666 27.1853C72.666 26.9434 72.7621 26.7115 72.9331 26.5405C73.1041 26.3695 73.336 26.2734 73.5778 26.2734H75.5291C75.771 26.2734 76.0029 26.3695 76.1739 26.5405C76.3449 26.7115 76.441 26.9434 76.441 27.1853C76.441 27.4271 76.3449 27.659 76.1739 27.83C76.0029 28.001 75.771 28.0971 75.5291 28.0971H75.4836Z" fill="#302D3D"/>
<path d="M66.8396 30.8401C66.5977 30.8401 66.3658 30.744 66.1948 30.573C66.0238 30.402 65.9277 30.1701 65.9277 29.9283V29.4997C65.9277 29.2579 66.0238 29.026 66.1948 28.855C66.3658 28.684 66.5977 28.5879 66.8396 28.5879C67.0814 28.5879 67.3133 28.684 67.4843 28.855C67.6553 29.026 67.7514 29.2579 67.7514 29.4997V29.9283C67.7514 30.1701 67.6553 30.402 67.4843 30.573C67.3133 30.744 67.0814 30.8401 66.8396 30.8401Z" fill="#302D3D"/>
<path d="M67.8153 28.0971H65.864C65.6221 28.0971 65.3902 28.001 65.2192 27.83C65.0482 27.659 64.9521 27.4271 64.9521 27.1853C64.9521 26.9434 65.0482 26.7115 65.2192 26.5405C65.3902 26.3695 65.6221 26.2734 65.864 26.2734H67.8153C68.0571 26.2734 68.289 26.3695 68.46 26.5405C68.631 26.7115 68.7271 26.9434 68.7271 27.1853C68.7271 27.4271 68.631 27.659 68.46 27.83C68.289 28.001 68.0571 28.0971 67.8153 28.0971Z" fill="#302D3D"/>
<path d="M67.7146 16.7168C68.2131 17.2147 68.6085 17.806 68.8783 18.4569C69.1481 19.1078 69.287 19.8054 69.287 20.51C69.287 21.2146 69.1481 21.9122 68.8783 22.5631C68.6085 23.2139 68.2131 23.8052 67.7146 24.3032L62.6357 19.2334" fill="#52527B"/>
<path d="M61.5787 62.1533C61.2687 64.059 61.5787 62.0439 59.755 74.2623H57.9314C57.9314 74.1438 57.8037 75.0283 59.755 61.8615C59.7937 61.6197 59.9269 61.4031 60.1253 61.2595C60.3236 61.1159 60.5709 61.0569 60.8128 61.0956C61.0546 61.1343 61.2711 61.2675 61.4148 61.4658C61.5584 61.6642 61.6174 61.9115 61.5787 62.1533Z" fill="#3E3962"/>
<path d="M63.2197 50.1533C63.3281 49.0289 63.6896 47.9436 64.277 46.9788C64.8645 46.014 65.6626 45.1946 66.6117 44.582C65.5007 44.6278 64.4003 44.8179 63.3383 45.1474C62.226 46.5807 61.5572 48.3081 61.4143 50.1168C60.7023 50.3352 60.0923 50.8019 59.6953 51.4321C59.2984 52.0622 59.1407 52.8139 59.2512 53.5504C59.3616 54.287 59.7327 54.9594 60.297 55.4454C60.8613 55.9314 61.5814 56.1987 62.3261 56.1987C63.0709 56.1987 63.7909 55.9314 64.3552 55.4454C64.9195 54.9594 65.2907 54.287 65.4011 53.5504C65.5115 52.8139 65.3539 52.0622 64.9569 51.4321C64.5599 50.8019 63.95 50.3352 63.238 50.1168L63.2197 50.1533ZM62.3079 54.375C62.0498 54.3859 61.7943 54.3194 61.5743 54.1839C61.3543 54.0484 61.1798 53.8502 61.0734 53.6148C60.9669 53.3794 60.9334 53.1175 60.977 52.8629C61.0206 52.6082 61.1394 52.3724 61.3181 52.1858C61.4968 51.9992 61.7272 51.8704 61.9798 51.8158C62.2323 51.7612 62.4954 51.7835 62.7352 51.8797C62.975 51.9759 63.1805 52.1416 63.3254 52.3555C63.4702 52.5695 63.5477 52.8219 63.548 53.0802C63.548 53.4221 63.4128 53.75 63.172 53.9926C62.9311 54.2351 62.6041 54.3726 62.2623 54.375H62.3079Z" fill="#3E3962"/>
<path d="M82.3494 52.2049V54.2109C82.3494 54.4527 82.2533 54.6847 82.0823 54.8557C81.9113 55.0267 81.6794 55.1227 81.4376 55.1227C81.1958 55.1227 80.9638 55.0267 80.7928 54.8557C80.6218 54.6847 80.5258 54.4527 80.5258 54.2109V52.2049C80.5258 52.0976 80.4838 51.9946 80.4088 51.9179C80.3338 51.8412 80.2318 51.7969 80.1246 51.7946H78.0456C77.9384 51.7969 77.8363 51.8412 77.7613 51.9179C77.6863 51.9946 77.6444 52.0976 77.6444 52.2049V54.2109C77.6444 54.4527 77.5483 54.6847 77.3773 54.8557C77.2063 55.0267 76.9744 55.1227 76.7326 55.1227C76.4907 55.1227 76.2588 55.0267 76.0878 54.8557C75.9168 54.6847 75.8207 54.4527 75.8207 54.2109V52.2049C75.8192 51.9045 75.8787 51.607 75.9958 51.3303C76.1128 51.0537 76.2848 50.8037 76.5015 50.5956C76.7181 50.3875 76.9747 50.2256 77.2559 50.1198C77.537 50.014 77.8367 49.9664 78.1368 49.98C78.0052 48.8867 77.6338 47.8359 77.049 46.9027C76.4642 45.9696 75.6805 45.1771 74.7539 44.582C75.865 44.6271 76.9655 44.8171 78.0274 45.1474C79.1154 46.5432 79.7857 48.2188 79.9604 49.98H80.161C80.7448 49.9896 81.3013 50.2282 81.7107 50.6444C82.1201 51.0606 82.3495 51.6211 82.3494 52.2049Z" fill="#3E3962"/>
<path d="M74.8452 10.1872H65.8364C65.1889 10.1883 64.5534 10.0122 63.9988 9.67786C63.4443 9.34353 62.9919 8.86378 62.6906 8.29062L61.4961 6.0293H79.1764L77.9819 8.29062C77.6813 8.86241 77.2303 9.34126 76.6775 9.6755C76.1247 10.0097 75.4912 10.1867 74.8452 10.1872Z" fill="#52527B"/>
<path d="M88.9329 82.1501L87.8661 80.7368C86.1309 78.4442 84.9663 75.7716 84.4684 72.9399C83.9706 70.1081 84.1538 67.1985 85.003 64.4516L87.1822 57.4306C87.3247 56.9806 87.3484 56.5015 87.2509 56.0398C87.1535 55.578 86.9382 55.1493 86.626 54.7954L81.2098 48.595C80.3219 47.5874 79.832 46.2906 79.832 44.9477C79.832 43.6047 80.3219 42.3079 81.2098 41.3004C81.3424 41.1492 81.5042 41.0263 81.6854 40.939C81.8666 40.8518 82.0635 40.802 82.2644 40.7926C82.4653 40.7833 82.666 40.8145 82.8546 40.8845C83.0431 40.9545 83.2156 41.0619 83.3617 41.2001L93.3918 50.7469C96.2608 53.4816 97.9627 57.2187 98.1424 61.1782L98.3247 64.8254C98.3593 65.5648 98.5502 66.2885 98.885 66.9486C99.2198 67.6088 99.6908 68.1904 100.267 68.6551L104.58 72.12L88.9329 82.1501Z" fill="#FBC4AB"/>
<path d="M98.1336 60.9395L95.854 60.3742C95.298 60.2354 94.7875 59.955 94.372 59.5603C93.9566 59.1656 93.6504 58.6701 93.4833 58.122L92.0517 53.417C91.8782 52.839 91.5466 52.3211 91.0943 51.9216L81.3651 43.2866C81.0935 43.0518 80.9244 42.7203 80.8937 42.3626C80.863 42.0049 80.9733 41.6494 81.201 41.3718C81.3324 41.2179 81.4937 41.0924 81.675 41.0027C81.8564 40.9129 82.0541 40.861 82.2561 40.8499C82.4582 40.8388 82.6603 40.8689 82.8504 40.9382C83.0405 41.0075 83.2146 41.1147 83.362 41.2533L93.3921 50.8001C96.1906 53.464 97.8834 57.084 98.1336 60.9395Z" fill="#FBE7DD"/>
<path d="M104.58 72.1196L88.9423 82.1497L87.8755 80.7363C86.1416 78.4431 84.9778 75.7705 84.48 72.939C83.9822 70.1075 84.1647 67.1982 85.0123 64.4511L87.1916 57.4301C87.3341 56.9802 87.3577 56.5011 87.2603 56.0393C87.1628 55.5776 86.9475 55.1489 86.6354 54.7949L88.6232 57.0654C89.5721 58.1372 90.0631 59.5383 89.9909 60.968L89.617 67.5605C89.6003 67.9679 89.6701 68.3743 89.8221 68.7527C89.974 69.1312 90.2046 69.473 90.4985 69.7557C90.7924 70.0384 91.143 70.2555 91.527 70.3927C91.9111 70.5298 92.3199 70.5839 92.7264 70.5512L94.623 70.4236C95.1582 70.3866 95.6729 70.2028 96.1104 69.8923C96.548 69.5819 96.8915 69.1568 97.1031 68.6638L98.4526 65.5727C98.6941 66.7641 99.338 67.8361 100.276 68.6091L104.58 72.1196Z" fill="#FB9C88"/>
<path d="M37.5154 56.2355V54.0289C37.5059 53.5048 37.2916 53.0052 36.9184 52.6371C36.5451 52.269 36.0427 52.0616 35.5185 52.0593H19.1056C18.8407 52.0521 18.5769 52.0974 18.3296 52.1927C18.0822 52.2879 17.8562 52.4313 17.6646 52.6144C17.473 52.7976 17.3196 53.0169 17.2132 53.2596C17.1068 53.5024 17.0496 53.7639 17.0449 54.0289V69.9949C17.0449 70.5245 17.2553 71.0325 17.6298 71.407C18.0043 71.7815 18.5122 71.9918 19.0418 71.9918H35.4547C35.7169 71.9918 35.9766 71.9402 36.2188 71.8398C36.4611 71.7395 36.6812 71.5924 36.8667 71.407C37.0521 71.2215 37.1992 71.0014 37.2996 70.7591C37.3999 70.5168 37.4516 70.2572 37.4516 69.9949V64.3872L44.1899 56.2355H37.5154Z" fill="#49D293"/>
<path d="M19.7803 68.0894V55.9256C19.7922 55.6201 19.9225 55.3311 20.1438 55.12C20.3651 54.909 20.6599 54.7924 20.9657 54.795H33.6127C33.9247 54.795 34.2238 54.9189 34.4444 55.1395C34.665 55.3601 34.7889 55.6593 34.7889 55.9712V57.7949C34.7889 58.1068 34.9129 58.406 35.1335 58.6266C35.354 58.8472 35.6532 58.9711 35.9652 58.9711C36.1885 58.9704 36.4074 59.0333 36.5963 59.1523C36.7852 59.2714 36.9363 59.4418 37.0319 59.6436C37.1276 59.8454 37.1638 60.0702 37.1363 60.2919C37.1089 60.5135 37.019 60.7227 36.877 60.8951C34.9622 63.2111 34.7889 63.2749 34.7889 63.8403V68.0985C34.7889 68.2529 34.7585 68.4059 34.6994 68.5486C34.6403 68.6913 34.5537 68.821 34.4444 68.9302C34.3352 69.0394 34.2055 69.1261 34.0628 69.1852C33.9201 69.2443 33.7672 69.2747 33.6127 69.2747H20.9657C20.8097 69.276 20.655 69.2461 20.5106 69.187C20.3663 69.1278 20.2351 69.0406 20.1248 68.9303C20.0145 68.8199 19.9272 68.6888 19.8681 68.5444C19.8089 68.4001 19.7791 68.2454 19.7803 68.0894Z" fill="#8AF0B1"/>
<path d="M37.5154 31.9165V34.1322C37.5154 34.3945 37.4637 34.6541 37.3634 34.8964C37.263 35.1387 37.1159 35.3588 36.9305 35.5442C36.7451 35.7297 36.5249 35.8768 36.2827 35.9771C36.0404 36.0775 35.7807 36.1291 35.5185 36.1291H19.1056C18.8381 36.1377 18.5715 36.0923 18.3219 35.9958C18.0722 35.8993 17.8444 35.7536 17.6522 35.5673C17.4599 35.381 17.3071 35.158 17.2028 34.9114C17.0985 34.6649 17.0448 34.3999 17.0449 34.1322V18.1662C17.0449 17.6357 17.255 17.1269 17.6292 16.7509C18.0035 16.375 18.5114 16.1626 19.0418 16.1602H35.4547C35.9851 16.1626 36.493 16.375 36.8672 16.7509C37.2415 17.1269 37.4516 17.6357 37.4516 18.1662V23.7921L44.1899 31.9438L37.5154 31.9165Z" fill="#FFA946"/>
<path d="M19.7803 32.2268V20.063C19.7803 19.9078 19.811 19.7541 19.8707 19.6108C19.9304 19.4675 20.0178 19.3374 20.128 19.228C20.2382 19.1187 20.3689 19.0322 20.5127 18.9737C20.6565 18.9151 20.8104 18.8856 20.9656 18.8868H33.6127C33.9246 18.8868 34.2238 19.0107 34.4444 19.2313C34.665 19.4519 34.7889 19.751 34.7889 20.063C34.7889 24.7133 34.6977 24.6221 35.0625 25.078L36.8861 27.2664C37.027 27.4398 37.1161 27.6494 37.143 27.8712C37.17 28.0929 37.1337 28.3178 37.0384 28.5198C36.9431 28.7219 36.7926 28.8929 36.6044 29.0131C36.4161 29.1334 36.1977 29.198 35.9743 29.1995C35.6623 29.1995 35.3631 29.3234 35.1425 29.544C34.922 29.7646 34.798 30.0638 34.798 30.3757V32.1994C34.798 32.5114 34.6741 32.8105 34.4535 33.0311C34.2329 33.2517 33.9337 33.3756 33.6218 33.3756H20.9656C20.6568 33.3781 20.3594 33.259 20.1376 33.0441C19.9158 32.8291 19.7874 32.5355 19.7803 32.2268Z" fill="#FFE06E"/>
<path d="M32.3094 58.7611H22.2429C22.001 58.7611 21.7691 58.6651 21.5981 58.4941C21.4271 58.3231 21.3311 58.0912 21.3311 57.8493C21.3311 57.6075 21.4271 57.3756 21.5981 57.2046C21.7691 57.0336 22.001 56.9375 22.2429 56.9375H32.273C32.5148 56.9375 32.7467 57.0336 32.9177 57.2046C33.0887 57.3756 33.1848 57.6075 33.1848 57.8493C33.1848 58.0912 33.0887 58.3231 32.9177 58.4941C32.7467 58.6651 32.5148 58.7611 32.273 58.7611H32.3094Z" fill="white"/>
<path d="M32.3094 62.9174H22.2429C22.001 62.9174 21.7691 62.8212 21.5981 62.6502C21.4271 62.4792 21.3311 62.2474 21.3311 62.0056C21.3311 61.7637 21.4271 61.5318 21.5981 61.3608C21.7691 61.1898 22.001 61.0938 22.2429 61.0938H32.273C32.5148 61.0938 32.7467 61.1898 32.9177 61.3608C33.0887 61.5318 33.1848 61.7637 33.1848 62.0056C33.1848 62.2474 33.0887 62.4792 32.9177 62.6502C32.7467 62.8212 32.5148 62.9174 32.273 62.9174H32.3094Z" fill="white"/>
<path d="M32.3094 67.0678H22.2429C22.001 67.0678 21.7691 66.9717 21.5981 66.8007C21.4271 66.6297 21.3311 66.3978 21.3311 66.156C21.3311 65.9141 21.4271 65.6822 21.5981 65.5112C21.7691 65.3402 22.001 65.2441 22.2429 65.2441H32.273C32.5148 65.2441 32.7467 65.3402 32.9177 65.5112C33.0887 65.6822 33.1848 65.9141 33.1848 66.156C33.1848 66.3978 33.0887 66.6297 32.9177 66.8007C32.7467 66.9717 32.5148 67.0678 32.273 67.0678H32.3094Z" fill="white"/>
<path d="M21.9145 27.0561H21.7321C21.4903 27.0561 21.2584 26.96 21.0874 26.789C20.9164 26.618 20.8203 26.3861 20.8203 26.1442C20.8203 25.9024 20.9164 25.6705 21.0874 25.4995C21.2584 25.3285 21.4903 25.2324 21.7321 25.2324H21.9145C22.1563 25.2324 22.3883 25.3285 22.5593 25.4995C22.7303 25.6705 22.8263 25.9024 22.8263 26.1442C22.8263 26.3861 22.7303 26.618 22.5593 26.789C22.3883 26.96 22.1563 27.0561 21.9145 27.0561Z" fill="white"/>
<path d="M27.1759 27.0561H27.0026C26.7608 27.0561 26.5289 26.96 26.3579 26.789C26.1869 26.618 26.0908 26.3861 26.0908 26.1442C26.0908 25.9024 26.1869 25.6705 26.3579 25.4995C26.5289 25.3285 26.7608 25.2324 27.0026 25.2324H27.1759C27.4177 25.2324 27.6496 25.3285 27.8206 25.4995C27.9916 25.6705 28.0877 25.9024 28.0877 26.1442C28.0877 26.3861 27.9916 26.618 27.8206 26.789C27.6496 26.96 27.4177 27.0561 27.1759 27.0561Z" fill="white"/>
<path d="M32.8198 27.0561H32.6374C32.3956 27.0561 32.1637 26.96 31.9927 26.789C31.8217 26.618 31.7256 26.3861 31.7256 26.1442C31.7256 25.9024 31.8217 25.6705 31.9927 25.4995C32.1637 25.3285 32.3956 25.2324 32.6374 25.2324H32.8198C33.0616 25.2324 33.2935 25.3285 33.4645 25.4995C33.6355 25.6705 33.7316 25.9024 33.7316 26.1442C33.7316 26.3861 33.6355 26.618 33.4645 26.789C33.2935 26.96 33.0616 27.0561 32.8198 27.0561Z" fill="white"/>
</svg>
