<svg width="119" height="106" viewBox="0 0 119 106" fill="none" xmlns="http://www.w3.org/2000/svg">
<circle cx="44.563" cy="60.563" r="44.563" fill="#F2FAF3"/>
<path fill-rule="evenodd" clip-rule="evenodd" d="M109.518 32.1074C113.702 32.1074 117.125 35.5308 117.125 39.7149V84.0556C117.125 88.2397 113.702 91.663 109.518 91.663H32.4826C28.2984 91.6632 24.875 88.2399 24.875 84.0558V39.715C24.875 35.531 28.2984 32.1076 32.4824 32.1076H109.518V32.1074Z" fill="#3E9DC3"/>
<path fill-rule="evenodd" clip-rule="evenodd" d="M44.5166 58.9922H97.4842C98.0006 58.9922 98.4217 59.4133 98.4217 59.9297V65.3318C98.4217 65.8481 98.0006 66.2693 97.4842 66.2693H44.5166C44.0002 66.2693 43.5791 65.8481 43.5791 65.3318V59.9297C43.5793 59.4133 44.0002 58.9922 44.5166 58.9922Z" fill="#F2F2F2"/>
<path fill-rule="evenodd" clip-rule="evenodd" d="M65.0927 72.9141H76.9074C78.2621 72.9141 79.3703 74.0224 79.3703 75.3769V77.4823C79.3703 78.837 78.2619 79.9451 76.9074 79.9451H65.0927C63.738 79.9451 62.6299 78.8368 62.6299 77.4823V75.3769C62.6299 74.0222 63.738 72.9141 65.0927 72.9141Z" fill="#F2F2F2"/>
<path d="M71.0001 48.4899C83.1929 48.4899 93.0771 38.6057 93.0771 26.4129C93.0771 14.2201 83.1929 4.33594 71.0001 4.33594C58.8073 4.33594 48.9231 14.2201 48.9231 26.4129C48.9231 38.6057 58.8073 48.4899 71.0001 48.4899Z" fill="#F2F2F2"/>
<path fill-rule="evenodd" clip-rule="evenodd" d="M76.1116 29.9693L85.1986 32.1764C86.4109 32.4708 87.2418 33.5198 87.2418 34.7673V34.9101C84.1786 40.7536 78.0556 44.7408 71.0003 44.7408C63.8136 44.7408 57.5944 40.6036 54.5911 34.5816C54.6691 33.4169 55.4774 32.4605 56.6279 32.1762L65.7149 29.9316L76.1116 29.9693Z" fill="#46CC6B"/>
<path fill-rule="evenodd" clip-rule="evenodd" d="M70.9135 35.1203C74.2497 35.1203 77.0768 32.9845 77.5546 30.319L76.1118 29.9685V27.1234V25.2617H65.7151V27.1232V29.9308L64.3508 30.2678C64.8012 32.9573 67.556 35.1203 70.9135 35.1203Z" fill="#EFCA9E"/>
<path fill-rule="evenodd" clip-rule="evenodd" d="M63.7805 17.292C64.0029 17.292 63.0596 10.9629 70.913 10.9629C76.9612 10.9629 77.9086 13.8406 78.0298 17.292L78.0457 22.2526C78.0457 26.1755 74.8361 29.3853 70.913 29.3853C66.9901 29.3853 63.7805 26.1757 63.7805 22.2526V17.292Z" fill="#FED9A8"/>
<path fill-rule="evenodd" clip-rule="evenodd" d="M65.5192 19.103C64.917 19.103 64.334 19.0211 63.7805 18.8685C63.7805 18.7081 63.782 18.0022 63.7856 17.8436C63.8671 14.1241 64.986 10.9629 70.913 10.9629C77.2811 10.9629 77.9947 14.1528 78.0427 17.8438C78.0448 18.0024 78.0455 18.7081 78.0455 18.8685C75.8182 19.4823 70.2324 19.7274 68.6683 17.4395C67.9818 18.4438 66.8276 19.103 65.5192 19.103Z" fill="#515151"/>
</svg>
