<svg width="121" height="102" viewBox="0 0 121 102" fill="none" xmlns="http://www.w3.org/2000/svg">
<path d="M44.563 101.999C69.1745 101.999 89.126 82.0475 89.126 57.436C89.126 32.8246 69.1745 12.873 44.563 12.873C19.9515 12.873 0 32.8246 0 57.436C0 82.0475 19.9515 101.999 44.563 101.999Z" fill="#F2FAF3"/>
<path d="M86.1028 67.5632V88.2271H31.4551V67.5632C31.4551 60.4638 37.2196 54.6992 44.319 54.6992H73.2581C80.3575 54.6992 86.1028 60.4638 86.1028 67.5632Z" fill="#E83D62"/>
<path d="M44.3177 54.6953H47.8038C40.7065 54.6953 34.945 60.4568 34.945 67.5541V88.2294H31.459V67.5541C31.459 60.4568 37.2204 54.6953 44.3177 54.6953Z" fill="#CE2955"/>
<path d="M31.459 74.8809H42.3972V88.2283H31.459V74.8809Z" fill="#FFAF93"/>
<path d="M31.459 74.8809H34.9445V88.2283H31.459V74.8809Z" fill="#EE8778"/>
<path d="M75.1729 74.875H86.1022V88.226H75.1729V74.875Z" fill="#FFAF93"/>
<path d="M65.9012 50.5703V56.2545C65.9012 60.1809 62.7075 63.36 58.8105 63.36C56.8327 63.36 55.0746 62.5688 53.7854 61.2797C52.4816 59.9904 51.7051 58.2177 51.7051 56.2545V50.5703H65.9012Z" fill="#FFAF93"/>
<path d="M71.8109 24.6152V41.9172C71.8109 49.1005 65.9878 54.9237 58.8044 54.9237C51.6211 54.9237 45.7979 49.1005 45.7979 41.9172V24.6152H71.8109Z" fill="#FFAF93"/>
<path d="M71.806 24.6094V41.9114C71.806 42.3216 71.7914 42.7318 71.7474 43.1274C71.7035 43.6987 71.6009 44.2554 71.469 44.8121C70.1652 50.6136 64.9936 54.9208 58.8112 54.9208C55.2219 54.9208 51.9695 53.4705 49.6108 51.1118C47.2521 48.753 45.8018 45.5007 45.8018 41.9114V24.6094H71.806Z" fill="#FFAF93"/>
<path d="M74.5856 39.1363V23.3835C74.5856 23.3835 74.8453 15.4205 64.1992 13.1701C51.752 10.539 50.8266 16.1995 50.8266 16.1995H49.3552C45.8178 16.1995 42.9502 19.0671 42.9502 22.6045V39.1363H45.8065V30.3511C45.8065 27.3873 48.2091 24.9847 51.1728 24.9847L51.3758 25.2138C53.2466 27.3249 55.9323 28.5334 58.7532 28.5334H69.9622C70.978 28.5334 71.8015 29.3569 71.8015 30.3727V39.1363H74.5856Z" fill="#AB604B"/>
<path d="M45.8012 32.5352V39.1425H42.9443V33.5168C43.7354 32.9014 44.717 32.5352 45.8012 32.5352Z" fill="#AB604B"/>
<path d="M49.6101 16.1992H49.3543C45.8169 16.1992 42.9492 19.0668 42.9492 22.6042V39.136H45.8055V30.3507C45.8055 27.9349 47.4145 25.9206 49.6101 25.2484V16.1992Z" fill="#8B4F4F"/>
<path d="M76.3857 38.5753C76.3857 41.1251 74.3407 43.17 71.791 43.17V34.0059C74.3407 34.0059 76.3857 36.0507 76.3857 38.5753Z" fill="#FFAF93"/>
<path d="M73.0169 34.19C72.6247 34.0821 72.2191 34.0059 71.791 34.0059V43.17C72.2191 43.17 72.6247 43.0936 73.0169 42.9857V34.19Z" fill="#EE8778"/>
<path d="M55.9942 61.2317L56.0497 61.2872C57.0867 62.3243 58.4201 63.0465 59.9386 63.2502C59.5682 63.3243 59.1978 63.3613 58.809 63.3613C56.8276 63.3613 55.0683 62.565 53.7906 61.2872C52.4757 59.9909 51.698 58.2133 51.698 56.2504V52.806C50.9388 52.306 50.2535 51.7505 49.6054 51.1208C47.2536 48.7505 45.8092 45.5098 45.8092 41.9173V43.1765C43.2537 43.1765 41.1982 41.1209 41.1982 38.5655C41.1982 37.1211 41.8834 35.8248 42.939 34.9914C43.7352 34.3619 44.7166 34.01 45.8092 34.01V30.3619C45.8092 27.9545 47.3832 25.9176 49.5869 25.2324V41.9173C49.5869 45.0838 50.7165 48.0097 52.6239 50.2874C52.8647 50.5653 53.1239 50.843 53.3831 51.1208C55.3091 53.0282 57.8275 54.3615 60.6238 54.7689C62.5496 54.5282 64.346 53.8245 65.9014 52.8244V55.0652C63.7719 56.1947 61.383 56.8244 58.809 56.8244C58.5683 56.8244 58.3275 56.8244 58.0868 56.8059C55.735 56.6948 54.3461 59.5651 55.9942 61.2317Z" fill="#EE8778"/>
<path d="M59.8327 40.1664V42.0237C59.8327 42.6542 59.3223 43.1647 58.6918 43.1647C58.0613 43.1647 57.5508 42.6542 57.5508 42.0237V40.1664C57.5508 39.5359 58.0613 39.0254 58.6918 39.0254C59.0076 39.0254 59.292 39.1524 59.4983 39.3599C59.7046 39.5662 59.8327 39.8517 59.8327 40.1664Z" fill="#EE8778"/>
<path d="M54.7295 46.0938C55.1365 47.9655 56.8008 49.3681 58.7944 49.3681C60.7881 49.3681 62.4524 47.9655 62.8594 46.0938H54.7295Z" fill="#EE8778"/>
<path d="M55.1215 35.5962C54.859 34.389 53.7856 33.4844 52.4997 33.4844C51.2138 33.4844 50.1405 34.389 49.8779 35.5962H55.1215Z" fill="#312E4B"/>
<path d="M67.7288 35.5962C67.4663 34.389 66.393 33.4844 65.1071 33.4844C63.8212 33.4844 62.7479 34.389 62.4854 35.5962H67.7288Z" fill="#312E4B"/>
<path d="M55.9129 88.1811L109.73 88.5112C111.405 88.5215 112.827 87.2872 113.053 85.6275L113.379 83.2383H52.5996V84.8474C52.5996 86.6806 54.0797 88.1698 55.9129 88.1811Z" fill="#312E4B"/>
<path d="M74.4508 83.2383L74.188 85.2085C73.9547 86.9569 72.4591 88.26 70.6952 88.2516L55.9175 88.1812C54.0825 88.1725 52.5996 86.6825 52.5996 84.8475V83.2383H74.4508Z" fill="#5B5E8B"/>
<path d="M113.379 83.239L116.313 55.0763C116.452 53.7337 115.394 52.5679 114.044 52.5782L76.2207 52.8666L72.5801 83.239H113.379Z" fill="#5B5E8B"/>
<path d="M74.3111 54.4006L70.9741 81.2161C70.8535 82.2262 71.5748 83.1055 72.585 83.226C73.5625 83.3427 74.4704 82.6579 74.591 81.6478L77.9281 54.8323C78.0486 53.8222 77.3273 52.9429 76.3498 52.8262C75.3397 52.7057 74.4317 53.3905 74.3111 54.4006Z" fill="#312E4B"/>
<path d="M94.4528 72.0248C96.6624 72.0248 98.4535 70.2337 98.4535 68.0241C98.4535 65.8146 96.6624 64.0234 94.4528 64.0234C92.2433 64.0234 90.4521 65.8146 90.4521 68.0241C90.4521 70.2337 92.2433 72.0248 94.4528 72.0248Z" fill="#DEDDFF"/>
<path d="M80.6448 11.2163L80.6279 5.26196C80.6252 4.3123 81.3944 3.54102 82.344 3.54102H89.8144C90.7622 3.54102 91.5305 4.30934 91.5305 5.25711V11.2114C91.5305 12.1592 90.7622 12.9275 89.8144 12.9275H82.3609C81.415 12.9275 80.6474 12.1622 80.6448 11.2163Z" fill="#E83D62"/>
<path d="M80.6448 24.8452L80.6279 18.8909C80.6252 17.9412 81.3944 17.1699 82.344 17.1699H89.8144C90.7622 17.1699 91.5305 17.9382 91.5305 18.886V24.8403C91.5305 25.7881 90.7622 26.5564 89.8144 26.5564H82.3609C81.415 26.5564 80.6474 25.7911 80.6448 24.8452Z" fill="#65B9FF"/>
<path d="M80.6448 38.476L80.6279 32.5217C80.6252 31.5721 81.3944 30.8008 82.344 30.8008H89.8144C90.7622 30.8008 91.5305 31.5691 91.5305 32.5169V38.4712C91.5305 39.419 90.7622 40.1873 89.8144 40.1873H82.3609C81.415 40.1873 80.6474 39.4219 80.6448 38.476Z" fill="#46CC6B"/>
<path d="M84.5423 10.5036C84.708 10.6708 84.9343 10.7631 85.1693 10.7631C85.4043 10.7631 85.6291 10.6708 85.7949 10.5036L88.5437 7.75478C88.8897 7.40884 88.8897 6.84811 88.5437 6.5036C88.1978 6.15765 87.6385 6.15765 87.2926 6.5036L85.1693 8.62542L84.6461 8.10073C84.3001 7.75478 83.7394 7.75334 83.3934 8.09929C83.0475 8.44524 83.0475 9.00597 83.392 9.35191L84.5423 10.5036Z" fill="#DEDDFF"/>
<path d="M85.1693 24.1244C85.4043 24.1244 85.6291 24.0322 85.7949 23.865L88.5437 21.1161C88.8897 20.7716 88.8897 20.2094 88.5437 19.8649C88.1978 19.519 87.6385 19.519 87.2926 19.8649L85.1693 21.9868L84.6461 21.4621C84.3001 21.1161 83.7394 21.1147 83.3934 21.4606C83.0475 21.8066 83.0475 22.3673 83.392 22.7132L84.5423 23.865C84.708 24.0322 84.9343 24.1244 85.1693 24.1244Z" fill="#DEDDFF"/>
<path d="M85.1693 37.7533C85.4043 37.7533 85.6291 37.6611 85.7949 37.4939L88.5437 34.745C88.8897 34.4005 88.8897 33.8383 88.5437 33.4938C88.1978 33.1479 87.6385 33.1479 87.2926 33.4938L85.1693 35.6157L84.6461 35.091C84.3001 34.745 83.7394 34.7436 83.3934 35.0895C83.0475 35.4355 83.0475 35.9962 83.392 36.3421L84.5423 37.4939C84.708 37.6611 84.9343 37.7533 85.1693 37.7533Z" fill="#DEDDFF"/>
<path d="M116.823 5.46008C116.823 6.09839 116.297 6.62499 115.642 6.62499H97.8585C97.2044 6.62499 96.6777 6.09839 96.6777 5.46008C96.6777 4.8059 97.2044 4.2793 97.8585 4.2793H115.642C116.297 4.2793 116.823 4.8059 116.823 5.46008Z" fill="#B5B5EA"/>
<path d="M109.082 11.018C109.082 11.6647 108.558 12.1882 107.912 12.1882H97.8562C97.2092 12.1882 96.6855 11.6647 96.6855 11.0334C96.6855 10.3712 97.2092 9.84766 97.8562 9.84766H107.912C108.558 9.84766 109.082 10.3712 109.082 11.018Z" fill="#B5B5EA"/>
<path d="M116.823 19.089C116.823 19.7273 116.297 20.2539 115.642 20.2539H97.8585C97.2044 20.2539 96.6777 19.7273 96.6777 19.089C96.6777 18.4348 97.2044 17.9082 97.8585 17.9082H115.642C116.297 17.9082 116.823 18.4348 116.823 19.089Z" fill="#B5B5EA"/>
<path d="M109.082 24.6469C109.082 25.2936 108.558 25.8172 107.912 25.8172H97.8562C97.2092 25.8172 96.6855 25.2936 96.6855 24.6623C96.6855 24.0002 97.2092 23.4766 97.8562 23.4766H107.912C108.558 23.4766 109.082 24.0001 109.082 24.6469Z" fill="#B5B5EA"/>
<path d="M116.823 32.7198C116.823 33.3582 116.297 33.8848 115.642 33.8848H97.8585C97.2044 33.8848 96.6777 33.3582 96.6777 32.7198C96.6777 32.0657 97.2044 31.5391 97.8585 31.5391H115.642C116.297 31.5391 116.823 32.0657 116.823 32.7198Z" fill="#B5B5EA"/>
<path d="M109.082 38.2777C109.082 38.9244 108.558 39.448 107.912 39.448H97.8562C97.2092 39.448 96.6855 38.9244 96.6855 38.2931C96.6855 37.631 97.2092 37.1074 97.8562 37.1074H107.912C108.558 37.1074 109.082 37.631 109.082 38.2777Z" fill="#B5B5EA"/>
</svg>
